<svg display="none" version="1.1" xmlns="http://www.w3.org/2000/svg" xmlns:xlink="http://www.w3.org/1999/xlink">
  <defs>
    <symbol id="close-tab" viewBox="0 0 24 24">
      <title>close tab</title>
 <path xmlns="http://www.w3.org/2000/svg" d="M19 6.41L17.59 5 12 10.59 6.41 5 5 6.41 10.59 12 5 17.59 6.41 19 12 13.41 17.59 19 19 17.59 13.41 12z" fill="currentColor"/>
       </symbol>
    <symbol id="hamburger-menu" viewBox="0 0 24 24">
      <title>hamburger menu</title>
      <path xmlns="http://www.w3.org/2000/svg" d="M3 18h18v-2H3v2zm0-5h18v-2H3v2zm0-7v2h18V6H3z" fill="currentColor"/>
    </symbol>
    <symbol id="minimize-window" viewBox="0 0 24 24">
      <title>minimize window</title>
      <path fill="currentColor" xmlns="http://www.w3.org/2000/svg" d="M19 13H5v-2h14v2z"/>
    </symbol>
    <symbol id="maximize-window" viewBox="0 0 24 24">
      <title>maximize window</title>
      <path xmlns="http://www.w3.org/2000/svg" d="M7 14H5v5h5v-2H7v-3zm-2-4h2V7h3V5H5v5zm12 7h-3v2h5v-5h-2v3zM14 5v2h3v3h2V5h-5z" fill="currentColor"/>
    </symbol>
    <symbol id="restore-window" viewBox="0 0 24 24">
      <title>restore window</title>
      <path xmlns="http://www.w3.org/2000/svg" d="M5 16h3v3h2v-5H5v2zm3-8H5v2h5V5H8v3zm6 11h2v-3h3v-2h-5v5zm2-11V5h-2v5h5V8h-3z" fill="currentColor"/>
    </symbol>
    <symbol id="close-window" viewBox="0 0 24 24">
      <title>close window</title>
      <path xmlns="http://www.w3.org/2000/svg" d="M19 6.41L17.59 5 12 10.59 6.41 5 5 6.41 10.59 12 5 17.59 6.41 19 12 13.41 17.59 19 19 17.59 13.41 12z" fill="currentColor"/>
      
    </symbol>
  </defs>
</svg>
